<?xml version="1.0" encoding="UTF-8" standalone="no"?>
<!DOCTYPE svg PUBLIC "-//W3C//DTD SVG 1.1//EN" "http://www.w3.org/Graphics/SVG/1.1/DTD/svg11.dtd">
<svg width="100%" height="100%" viewBox="0 0 968 1300" version="1.1" xmlns="http://www.w3.org/2000/svg" xmlns:xlink="http://www.w3.org/1999/xlink" xml:space="preserve" xmlns:serif="http://www.serif.com/" style="fill-rule:evenodd;clip-rule:evenodd;stroke-linejoin:round;stroke-miterlimit:2;">
    <g id="ArtBoard1" transform="matrix(1,0,0,1.04718,-713.467,-221.122)">
        <rect x="713.467" y="211.16" width="967.485" height="1241.07" style="fill:none;"/>
        <g transform="matrix(4.16667,0,0,3.97895,0.467465,65.5785)">
            <rect x="195.255" y="220.152" width="197.328" height="114.063" style="fill:rgb(209,131,93);fill-rule:nonzero;"/>
            <rect x="195.255" y="220.152" width="197.328" height="14.653" style="fill:rgb(180,113,80);fill-rule:nonzero;"/>
            <rect x="189.617" y="210.103" width="208.605" height="14.481" style="fill:rgb(209,131,93);fill-rule:nonzero;"/>
            <path d="M398.222,210.103L189.617,210.103L233.958,164.396L356.904,164.396L398.222,210.103Z" style="fill:rgb(211,152,99);fill-rule:nonzero;"/>
            <path d="M265.413,182.824L258.762,189.679L329.077,189.679L322.88,182.824L265.413,182.824Z" style="fill:rgb(169,94,67);fill-rule:nonzero;"/>
            <path d="M267.671,185.446L325.261,185.446L322.88,182.824L265.413,182.824L258.762,189.679L263.565,189.679L267.671,185.446Z" style="fill:rgb(118,59,44);fill-rule:nonzero;"/>
            <path d="M305.908,254.761C294.126,251.254 285.616,260.949 285.616,260.949C285.616,260.949 277.104,251.254 265.324,254.761C251.734,258.808 247.893,271.914 255.247,288.095C262.417,303.873 285.616,316.05 285.616,316.05C285.616,316.05 308.815,303.873 315.985,288.095C323.338,271.914 319.497,258.808 305.908,254.761Z" style="fill:rgb(118,59,44);fill-rule:nonzero;"/>
            <path d="M290.418,257.739L290.418,312.84C290.418,312.84 267.219,300.664 260.049,284.886C252.695,268.703 256.536,255.598 270.127,251.552C281.907,248.044 290.418,257.739 290.418,257.739Z" style="fill:rgb(175,36,35);fill-rule:nonzero;"/>
            <path d="M290.418,257.739L290.418,312.84C290.418,312.84 313.618,300.664 320.787,284.886C328.141,268.703 324.3,255.598 310.709,251.552C298.929,248.044 290.418,257.739 290.418,257.739Z" style="fill:rgb(138,23,21);fill-rule:nonzero;"/>
            <path d="M328.102,152.986C318.548,158.522 300.051,154.828 300.051,154.828L300.445,139.057L329.093,132.456C329.093,132.456 337.655,147.452 328.102,152.986Z" style="fill:rgb(190,126,99);fill-rule:nonzero;"/>
            <path d="M341.539,137.602C333.777,144.298 315.609,145.598 315.609,145.598L313.818,129.925L338.454,119.751C338.454,119.751 349.299,130.907 341.539,137.602Z" style="fill:rgb(190,126,99);fill-rule:nonzero;"/>
            <path d="M348.819,125.134C341.057,131.831 322.89,133.131 322.89,133.131L321.099,117.457L345.734,107.283C345.734,107.283 356.58,118.438 348.819,125.134Z" style="fill:rgb(190,126,99);fill-rule:nonzero;"/>
            <path d="M359.226,61.909L380.142,83.639L334.307,111.255L309.634,127.575C309.634,127.575 308.52,141.42 314.223,145.139C323.648,151.286 314.358,166.471 302.317,161.855C290.276,157.241 270.938,142.064 273.244,131.731C275.548,121.397 295.165,92.759 300.461,87.954C310.128,79.178 359.226,61.909 359.226,61.909Z" style="fill:rgb(250,179,142);fill-rule:nonzero;"/>
            <path d="M367.202,86.515C356.824,86.943 346.504,87.502 336.175,88.66C334.375,88.863 333.12,87.97 332.486,86.732C326.637,89.108 321.946,92.98 317.971,98.365C313.052,105.029 308.55,111.5 302.559,117.27C297.861,121.793 291.58,127.074 291.179,134.108C291.142,134.755 290.932,138.711 292.076,138.871C293.849,139.116 295.697,138.275 297.269,137.546C301.342,135.659 304.997,133.037 308.998,131.021C309.187,130.927 309.369,130.855 309.549,130.793C309.53,128.88 309.634,127.575 309.634,127.575L334.307,111.255L375.639,86.351C375.08,86.285 374.523,86.211 373.963,86.139C371.658,86.261 369.383,86.426 367.202,86.515Z" style="fill:rgb(216,156,125);fill-rule:nonzero;"/>
            <path d="M307.446,101.624L320.102,120.242L323.681,118.283L307.446,101.624Z" style="fill:rgb(190,126,99);fill-rule:nonzero;"/>
            <path d="M278.872,135.005L301.334,136.5L301.996,132.476L278.872,135.005Z" style="fill:rgb(190,126,99);fill-rule:nonzero;"/>
            <path d="M284.106,138.75L316.628,182.135C316.628,182.135 291.174,186.24 276.216,178.048C260.875,169.647 256.165,157.06 264.476,145.854C271.682,136.14 284.106,138.75 284.106,138.75Z" style="fill:rgb(175,36,35);fill-rule:nonzero;"/>
            <path d="M284.106,138.75L316.628,182.135C316.628,182.135 327.708,158.853 324.041,142.198C320.278,125.116 309.519,117.064 296.429,121.9C285.084,126.092 284.106,138.75 284.106,138.75Z" style="fill:rgb(138,23,21);fill-rule:nonzero;"/>
            <path d="M332.194,84.329L380.142,83.639C380.142,83.639 362.383,94.789 359.878,99.51C356.018,106.78 358.177,111.741 346.51,120.681C335.733,128.937 319.823,139.287 306.45,145.62C295.993,150.571 286.152,142.401 294.116,134.131C300.392,127.616 308.908,121.17 314.18,116.51C319.452,111.849 318.555,93.77 332.194,84.329Z" style="fill:rgb(250,179,142);fill-rule:nonzero;"/>
            <path d="M381.815,40.836L348.464,61.134L372.438,94.203L381.815,89.588L381.815,40.836Z" style="fill:rgb(1,58,89);fill-rule:nonzero;"/>
        </g>
    </g>
</svg>
